<svg width="128" height="128" viewBox="0 0 128 128" fill="none" xmlns="http://www.w3.org/2000/svg">
  <defs>
    <linearGradient id="mwMarkBg" x1="16" y1="10" x2="112" y2="118" gradientUnits="userSpaceOnUse">
      <stop stop-color="#FF7A18"/>
      <stop offset="0.56" stop-color="#EA580C"/>
      <stop offset="1" stop-color="#0F172A"/>
    </linearGradient>
    <linearGradient id="mwMarkStroke" x1="64" y1="30" x2="64" y2="95" gradientUnits="userSpaceOnUse">
      <stop stop-color="#FFF3E8"/>
      <stop offset="1" stop-color="#FFE2C7"/>
    </linearGradient>
  </defs>

  <rect x="8" y="8" width="112" height="112" rx="30" fill="url(#mwMarkBg)"/>
  <rect x="9" y="9" width="110" height="110" rx="29" stroke="rgba(255,255,255,0.26)" stroke-width="2"/>

  <path d="M40 53C40 44.716 46.716 38 55 38C60.509 38 65.323 40.971 68 45.388C70.677 40.971 75.491 38 81 38C89.284 38 96 44.716 96 53C96 66.034 83.699 75.38 68 87C52.301 75.38 40 66.034 40 53Z" fill="#FED7AA" fill-opacity="0.18"/>
  <path d="M40 53C40 44.716 46.716 38 55 38C60.509 38 65.323 40.971 68 45.388C70.677 40.971 75.491 38 81 38C89.284 38 96 44.716 96 53C96 66.034 83.699 75.38 68 87C52.301 75.38 40 66.034 40 53Z" stroke="url(#mwMarkStroke)" stroke-width="5" stroke-linecap="round" stroke-linejoin="round"/>

  <path d="M58 64L66 72L82 56" stroke="#FFEDD5" stroke-width="5" stroke-linecap="round" stroke-linejoin="round"/>
</svg>
