<svg width="128" height="128" viewBox="0 0 128 128" fill="none" xmlns="http://www.w3.org/2000/svg">
  <defs>
    <linearGradient id="saMarkGradient" x1="18" y1="16" x2="108" y2="112" gradientUnits="userSpaceOnUse">
      <stop stop-color="#F7744D"/>
      <stop offset="1" stop-color="#2B88F5"/>
    </linearGradient>
  </defs>
  <circle cx="64" cy="64" r="56" fill="url(#saMarkGradient)"/>
  <circle cx="64" cy="64" r="55" stroke="white" stroke-opacity="0.24" stroke-width="2"/>
  <path
    d="M19.414 14.414C21 12.828 22 11.5 22 9.5a5.5 5.5 0 0 0-9.591-3.676.6.6 0 0 1-.818.001A5.5 5.5 0 0 0 2 9.5c0 2.3 1.5 4 3 5.5l5.535 5.362a2 2 0 0 0 2.879.052 2.12 2.12 0 0 0-.004-3 2.124 2.124 0 1 0 3-3 2.124 2.124 0 0 0 3.004 0 2 2 0 0 0 0-2.828l-1.881-1.882a2.41 2.41 0 0 0-3.409 0l-1.71 1.71a2 2 0 0 1-2.828 0 2 2 0 0 1 0-2.828l2.823-2.762"
    transform="translate(64 64) scale(3.6) translate(-12 -12)"
    stroke="white"
    stroke-width="2.35"
    stroke-linecap="round"
    stroke-linejoin="round"
  />
</svg>
