<svg width="128" height="128" viewBox="0 0 128 128" fill="none" xmlns="http://www.w3.org/2000/svg">
  <rect width="128" height="128" rx="28" fill="#0F6FFF"/>
  <rect x="24" y="34" width="80" height="60" rx="12" fill="white"/>
  <path d="M24 46.5L64 72.5L104 46.5" stroke="#0F6FFF" stroke-width="7" stroke-linecap="round" stroke-linejoin="round"/>
  <path d="M64 26C66.6 20.8 72.1 17 78.5 17C87.7 17 95 24.3 95 33.5C95 46.4 83.4 55.2 64 68" fill="#FF5A8E"/>
  <path d="M64 26C61.4 20.8 55.9 17 49.5 17C40.3 17 33 24.3 33 33.5C33 46.4 44.6 55.2 64 68" fill="#FF5A8E"/>
  <path d="M64 26C66.6 20.8 72.1 17 78.5 17C87.7 17 95 24.3 95 33.5C95 46.4 83.4 55.2 64 68" stroke="white" stroke-width="4.5" stroke-linecap="round" stroke-linejoin="round"/>
  <path d="M64 26C61.4 20.8 55.9 17 49.5 17C40.3 17 33 24.3 33 33.5C33 46.4 44.6 55.2 64 68" stroke="white" stroke-width="4.5" stroke-linecap="round" stroke-linejoin="round"/>
</svg>
